# xmcd CD database file
#
# Track frame offsets:
#	150
#	22100
#	53825
#	62862
#	88025
#	121400
#	136625
#	162425
#	199130
#	229442
#	245525
#
# Disc length: 3669 seconds
#
# Revision: 10
# Processed by: cddbd v1.5.2PL0 Copyright (c) Steve Scherf et al.
# Submitted via: CDex 1.51
#
DISCID=9b0e530b
DTITLE=Mateo Flecha - Las Ensaladas  (Huelgas Ensemble, Paul Van Nevel)
DYEAR=1991
DGENRE=Classique
TTITLE0=Las Ensaladas - El Fuego - Corred, corred, peccadores!  {Mateo Flecha el Viejo 1481-1553}
TTITLE1=Las Ensaladas - El Fuego - Oh cómo el mundo se abrassa
TTITLE2=Las Ensaladas - El Fuego - No os tardéis, traed aqua ya!
TTITLE3=Las Ensaladas - El Fuego - Toca, Joan, con tu gaitilla
TTITLE4=Las Ensaladas - La Negrina - Cumplido es nuestro deseo
TTITLE5=Las Ensaladas - La Negrina - No nos cansemos
TTITLE6=Las Ensaladas - La Negrina - Caminemos y veremos
TTITLE7=Las Ensaladas - La Justa - Oyd, oyd los vivientes!
TTITLE8=Las Ensaladas - La Justa - El mantenedor es fiero
TTITLE9=Las Ensaladas - La Justa - Dale la lança!
TTITLE10=Las Ensaladas - La Justa - Aparte todos!
EXTD=YEAR: 1991
EXTT0=
EXTT1=
EXTT2=
EXTT3=
EXTT4=
EXTT5=
EXTT6=
EXTT7=
EXTT8=
EXTT9=
EXTT10=
PLAYORDER=
